<svg height="479pt" viewBox="-7 0 479 479.96671" width="479pt" xmlns="http://www.w3.org/2000/svg"><path d="m376.484375 232c0 79.527344-64.472656 144-144 144-79.53125 0-144-64.472656-144-144s64.46875-144 144-144c79.527344 0 144 64.472656 144 144zm0 0" fill="#fff98e"/><path d="m232.484375 120s-112 0-112 120 216-120 112-120zm0 0" fill="#fffdd9"/><path d="m98.964844 285.839844c0-.078125-.082032-.078125-.082032-.160156-.230468-.398438-.390624-.828126-.480468-1.28125-.128906-.253907-.207032-.503907-.320313-.757813.632813 1.597656 1.3125 3.199219 2 4.800781-.292969-.699218-.613281-1.371094-.878906-2.074218-.078125-.128907-.160156-.367188-.238281-.527344zm0 0" fill="#fff98e"/><path d="m108.484375 305.023438c-1.863281-3.136719-3.640625-6.34375-5.25-9.679688 1.625 3.304688 3.386719 6.527344 5.25 9.679688zm0 0" fill="#fff98e"/><path d="m93.675781 270.222656c1.121094 4.066406 2.414063 8.066406 3.886719 12-.695312-1.832031-1.375-3.65625-1.960938-5.542968-.71875-2.175782-1.335937-4.320313-1.925781-6.457032zm0 0" fill="#fff98e"/><path d="m110.5625 308.535156-.214844-.34375zm0 0" fill="#fff98e"/><path d="m91.203125 259.839844c-.15625-.464844-.238281-.949219-.238281-1.441406-.480469-2.476563-.882813-5.039063-1.203125-7.597657-.101563-.226562-.132813-.476562-.078125-.722656-.082032-.316406-.082032-.71875-.160156-1.039063-.320313-2.558593-.558594-5.117187-.71875-7.757812-.242188-3.042969-.320313-6.160156-.320313-9.28125 0 12.601562 1.65625 25.148438 4.925781 37.320312-.339844-1.035156-.605468-2.089843-.796875-3.160156-.53125-2.082031-1.011719-4.160156-1.410156-6.320312zm0 0" fill="#fff98e"/><path d="m375.441406 249.039062c-.078125.320313-.078125.722657-.15625 1.039063.050782.246094.023438.496094-.082031.722656.011719.164063-.015625.328125-.078125.480469 0 .238281-.082031.398438-.082031.640625-.222657 2.175781-.570313 4.339844-1.039063 6.476563-.160156 1.042968-.402344 2.160156-.640625 3.203124-.242187 1.453126-.5625 2.894532-.960937 4.320313-.320313 1.519531-.71875 3.117187-1.199219 4.636719-.007813.058594-.023437.113281-.039063.167968 3.519532-12.605468 5.308594-25.636718 5.320313-38.726562 0 3.121094-.082031 6.238281-.320313 9.28125-.160156 2.640625-.402343 5.199219-.722656 7.757812zm0 0" fill="#fff98e"/><path d="m120.722656 322.640625c-1.757812-2.082031-3.359375-4.242187-4.960937-6.480469-.0625-.0625-.117188-.144531-.191407-.222656 3.777344 5.214844 7.898438 10.171875 12.335938 14.839844-.542969-.59375-1.125-1.136719-1.664062-1.738282-1.917969-2.078124-3.757813-4.238281-5.519532-6.398437zm0 0" fill="#fff98e"/><path d="m114.5625 314.480469c-.085938-.113281-.152344-.234375-.238281-.34375.160156.222656.304687.457031.457031.679687l-.058594-.097656c-.078125-.078125-.160156-.160156-.160156-.238281zm0 0" fill="#fff98e"/><path d="m101.203125 290.960938c-.113281-.199219-.214844-.402344-.304687-.609376.542968 1.207032 1.066406 2.402344 1.640624 3.617188-.339843-.632812-.625-1.289062-.855468-1.96875-.160156-.320312-.320313-.71875-.480469-1.039062zm0 0" fill="#fff98e"/><path d="m367.683594 281.601562c1.214844-3.320312 2.3125-6.679687 3.28125-10.105468-.457032 1.769531-1 3.496094-1.601563 5.207031-.601562 1.710937-1.113281 3.296875-1.679687 4.898437zm0 0" fill="#fff98e"/><path d="m308.242188 352h-151.519532l.320313 2.480469v.160156l4 29.359375.511719 3.761719 5.679687 42.476562c1.5 3.414063 3.3125 6.679688 5.410156 9.761719h119.679688c2.105469-3.078125 3.929687-6.347656 5.4375-9.761719l5.679687-42.476562 4.480469-33.121094v-.160156zm0 0" fill="#a0815c"/><g fill="#fff98e"><path d="m152.484375 352h.480469c-.179688-.078125-.339844-.1875-.480469-.320312zm0 0"/><path d="m367.042969 283.359375c.230469-.566406.398437-1.167969.609375-1.742187-.25.6875-.480469 1.382812-.746094 2.070312zm0 0"/><path d="m93.441406 269.441406c.074219.261719.160156.519532.234375.796875-.082031-.300781-.175781-.597656-.265625-.902343zm0 0"/><path d="m371.125 270.878906c.003906-.050781.015625-.101562.039062-.152344-.074218.265626-.152343.519532-.234374.800782.058593-.230469.144531-.429688.195312-.648438zm0 0"/><path d="m127.90625 330.777344c1.425781 1.527344 2.832031 3.054687 4.335938 4.503906 2.082031 2 4.242187 3.917969 6.402343 5.839844 4.359375 3.839844 8.984375 7.367187 13.839844 10.558594v-.078126c-8.9375-6.011718-17.179687-12.996093-24.578125-20.824218zm0 0"/><path d="m102.722656 294.398438c.152344.328124.351563.617187.511719.945312-.222656-.464844-.480469-.910156-.695313-1.375.074219.144531.113282.289062.183594.429688zm0 0"/><path d="m98.003906 283.441406.078125.199219c-.183593-.480469-.34375-.976563-.519531-1.457031.152344.417968.28125.839844.441406 1.257812zm0 0"/><path d="m109.363281 306.640625c.34375.527344.664063 1.03125.984375 1.550781-.648437-1.03125-1.242187-2.113281-1.863281-3.199218.3125.550781.558594 1.128906.878906 1.648437zm0 0"/><path d="m100.804688 290.160156c.035156.0625.066406.125.09375.191406-.277344-.625-.542969-1.253906-.800782-1.878906.234375.558594.449219 1.128906.707032 1.6875zm0 0"/><path d="m111.441406 309.921875c.960938 1.40625 1.875 2.804687 2.882813 4.214844-1.289063-1.847657-2.5625-3.695313-3.761719-5.601563.320312.464844.578125.945313.878906 1.386719zm0 0"/><path d="m115.285156 315.601562c.082032.121094.179688.234376.285156.335938-.269531-.378906-.527343-.753906-.800781-1.121094.152344.222656.296875.496094.515625.785156zm0 0"/><path d="m153.042969 352c1.285156.953125 2.621093 1.835938 4 2.640625v-.160156c-1.359375-.800781-2.71875-1.679688-4-2.480469zm0 0"/><path d="m152.484375 351.679688c.140625.132812.300781.242187.480469.320312h.078125c-.160157-.160156-.398438-.238281-.558594-.398438zm0 0"/></g><path d="m232.484375 64c4.417969 0 8-3.582031 8-8v-48c0-4.417969-3.582031-8-8-8s-8 3.582031-8 8v48c0 4.417969 3.582031 8 8 8zm0 0" fill="#231f20"/><path d="m137.554688 83.574219c1.417968 2.496093 4.066406 4.042969 6.9375 4.046875 2.871093.007812 5.523437-1.523438 6.953124-4.015625 1.429688-2.488281 1.417969-5.554688-.035156-8.03125l-24-41.597657c-1.417968-2.496093-4.066406-4.039062-6.9375-4.046874-2.867187-.007813-5.523437 1.527343-6.953125 4.015624-1.429687 2.488282-1.417969 5.554688.035157 8.03125zm0 0" fill="#231f20"/><path d="m34.492188 126.929688 41.597656 24c3.824218 2.171874 8.683594.851562 10.882812-2.957032 2.199219-3.808594.914063-8.675781-2.882812-10.902344l-41.597656-24c-3.824219-2.171874-8.683594-.851562-10.882813 2.957032s-.910156 8.675781 2.882813 10.902344zm0 0" fill="#231f20"/><path d="m64.484375 232c0-4.417969-3.582031-8-8-8h-48c-4.417969 0-8 3.582031-8 8s3.582031 8 8 8h48c4.417969 0 8-3.582031 8-8zm0 0" fill="#231f20"/><path d="m76.058594 313.070312-41.597656 24c-2.496094 1.421876-4.042969 4.066407-4.046876 6.9375-.007812 2.871094 1.527344 5.527344 4.015626 6.957032 2.488281 1.429687 5.554687 1.414062 8.03125-.035156l41.597656-24c2.496094-1.421876 4.039062-4.066407 4.046875-6.9375.007812-2.871094-1.527344-5.527344-4.015625-6.957032-2.488282-1.429687-5.554688-1.414062-8.03125.035156zm0 0" fill="#231f20"/><path d="m430.476562 337.070312-41.601562-24c-2.476562-1.449218-5.539062-1.464843-8.03125-.035156-2.488281 1.429688-4.019531 4.085938-4.015625 6.957032.007813 2.871093 1.550781 5.515624 4.046875 6.9375l41.601562 24c3.820313 2.171874 8.683594.851562 10.882813-2.957032 2.195313-3.808594.910156-8.675781-2.882813-10.902344zm0 0" fill="#231f20"/><path d="m456.484375 224h-48c-4.417969 0-8 3.582031-8 8s3.582031 8 8 8h48c4.417969 0 8-3.582031 8-8s-3.582031-8-8-8zm0 0" fill="#231f20"/><path d="m384.914062 152c1.40625 0 2.785157-.371094 4-1.070312l41.601563-24c3.792969-2.226563 5.082031-7.09375 2.882813-10.902344-2.199219-3.808594-7.058594-5.128906-10.882813-2.957032l-41.601563 24c-3.132812 1.8125-4.664062 5.503907-3.726562 9 .9375 3.496094 4.105469 5.929688 7.726562 5.929688zm0 0" fill="#231f20"/><path d="m316.484375 86.503906c3.824219 2.210938 8.71875.898438 10.925781-2.929687l24-41.597657c1.453125-2.476562 1.464844-5.542968.035156-8.03125-1.429687-2.488281-4.082031-4.023437-6.953124-4.015624-2.871094.007812-5.519532 1.550781-6.9375 4.046874l-24 41.597657c-2.207032 3.828125-.898438 8.71875 2.929687 10.929687zm0 0" fill="#231f20"/><path d="m120.484375 240c4.417969 0 8-3.582031 8-8 .066406-57.410156 46.589844-103.933594 104-104 4.417969 0 8-3.582031 8-8s-3.582031-8-8-8c-66.242187.074219-119.925781 53.757812-120 120 0 4.417969 3.582031 8 8 8zm0 0" fill="#231f20"/><path d="m232.484375 472c24.042969.015625 46.5-11.996094 59.839844-32h-119.679688c13.335938 20.003906 35.796875 32.015625 59.839844 32zm0 0" fill="#544028"/><path d="m160.484375 384h144v16h-144zm0 0" fill="#64513a"/><path d="m160.484375 352h144v16h-144zm0 0" fill="#64513a"/><path d="m378.882812 272.753906v-.042968c.257813-.800782.488282-1.664063.6875-2.445313.289063-1.105469.527344-2.21875.800782-3.328125.273437-1.113281.527344-2.226562.679687-3.113281 12.300781-56.898438-8.976562-115.824219-54.789062-151.738281-45.8125-35.914063-108.113281-42.511719-160.429688-16.988282-52.316406 25.527344-85.460937 78.691406-85.347656 136.902344 0 3.558594.152344 7.097656.398437 10.609375.128907 1.941406.320313 3.917969.558594 5.992187.449219 4.078126 1.027344 8.125 1.800782 12.132813.066406.328125.089843.664063.175781.992187.351562 1.832032.800781 3.609376 1.226562 5.386719.246094 1.03125.488281 2.0625.75 3.085938.121094.433593.183594.800781.320313 1.296875.320312 1.191406.695312 2.320312 1.046875 3.488281.378906 1.296875.738281 2.589844 1.152343 3.871094l.050782.152343c.71875 2.328126 1.535156 4.59375 2.519531 7.113282.183594.488281.375.96875.566406 1.445312.175781.597656.40625 1.175782.6875 1.730469l.042969.09375c.535156 1.425781 1.15625 2.839844 1.78125 4.167969l.105469.203125c.398437.902343.800781 1.796875 1.230469 2.703125.199218.445312.394531.941406.59375 1.351562 2.144531 4.515625 4.53125 8.910156 7.152343 13.167969l.742188 1.183594c.480469.800781.96875 1.601562 1.457031 2.28125l.984375 1.460937c.480469.707032.976563 1.417969 1.464844 2.121094.351562.511719.679687 1.023438 1.039062 1.527344.175781.289062.34375.570312.566407.875.167968.222656.351562.445312.527343.671875.3125.429687.632813.796875.945313 1.222656 1.3125 1.777344 2.640625 3.535156 4 5.257813l.097656.125c.253906.304687.519531.59375.796875.898437 1.601563 1.933594 3.203125 3.855469 4.921875 5.71875h.039062c1.425782 1.601563 2.9375 3.105469 4.441407 4.625.480469.472656.917969.976563 1.398437 1.445313.207032.203124.394532.425781.601563.625 2.160156 2.082031 4.398437 4.074218 6.617187 6.039062 4.199219 3.683594 8.628906 7.09375 13.261719 10.210938.832031.933593 1.871094 1.664062 3.03125 2.125l3.128906 23.296874c-.113281.429688-.1875.863282-.222656 1.304688.019531 1.230469.332031 2.4375.902344 3.527344l5.886719 43.777344c.097656.753906.304687 1.488281.617187 2.183593 1.695313 3.828125 3.734375 7.488281 6.097656 10.945313v.054687l.0625.070313c14.839844 22.128906 39.734375 35.40625 66.375 35.40625 26.644531 0 51.539063-13.277344 66.378907-35.40625l.0625-.070313.039062-.054687c2.363281-3.457032 4.40625-7.117188 6.097656-10.945313.3125-.695312.519532-1.429687.617188-2.183593l9.671875-71.914063c.558593-.1875 1.09375-.433594 1.597656-.742187 30.1875-20.226563 52.132813-50.59375 61.871094-85.601563.074219-.09375.121093-.191406.121093-.292969zm-146.398437-176.753906c75.074219.082031 135.914063 60.925781 136 136 0 2.902344-.074219 5.816406-.304687 8.800781-.152344 2.464844-.375 4.847657-.671876 7.246094v.183594c-.097656.4375-.164062.882812-.199218 1.328125v.160156c-.050782.242188-.082032.480469-.113282.738281-.03125.253907-.046874.398438-.070312.613281 0 .234376-.066406.457032-.097656.691407-.175782 1.238281-.359375 2.46875-.574219 3.703125-.105469.558594-.1875 1.078125-.320313 1.710937-.128906.847657-.328124 1.761719-.625 3.121094v.144531c-.199218.957032-.410156 1.917969-.632812 2.871094-.078125.320312-.136719.589844-.230469.953125-.269531 1.3125-.605469 2.613281-1.007812 3.894531-.152344.566406-.320313 1.136719-.480469 1.703125-.394531 1.449219-.800781 2.863281-1.34375 4.410157-.65625 2.046874-1.304688 4.09375-2.105469 6.054687l-.3125.800781c-.375 1.039063-.800781 2.058594-1.277343 3.054688-.175782.34375-.324219.703125-.441407 1.074218l-.160156.359376c-.710937 1.789062-1.503906 3.503906-2.527344 5.597656-.578125 1.296875-1.21875 2.519531-1.855469 3.746094l-.96875 1.910156c-10.265624 18.921875-24.886718 35.125-42.65625 47.273437-.417968-.085937-.839843-.132812-1.265624-.144531h-43.757813v-67.246094l.640625.453125c2.789062 2.003907 6.546875 2.003907 9.335938 0l18.6875-13.421875c2.410156-1.632812 3.742187-4.445312 3.484374-7.34375-.261718-2.898437-2.078124-5.429687-4.742187-6.601562-2.664063-1.175782-5.753906-.808594-8.070313.953125l-14.03125 10.070312-14.027343-10.070312c-2.789063-2.007813-6.550781-2.007813-9.34375 0l-13.984375 10.0625-13.980469-10.0625c-2.792969-2.011719-6.5625-2.011719-9.355469 0l-13.972656 10.0625-13.960938-10.0625c-3.585937-2.585938-8.589843-1.773438-11.171874 1.8125-2.585938 3.582031-1.773438 8.585937 1.8125 11.171875l18.636718 13.429687c2.792969 2.011719 6.5625 2.011719 9.355469 0l.6875-.496093v67.289062h-43.761719c-.339844.003906-.679687.027344-1.015625.070312-8.636719-5.914062-16.570312-12.796874-23.640625-20.519531-1.527344-1.664062-3.007812-3.421875-4.496094-5.222656-.269531-.328125-.566406-.648437-.839843-.984375-1.351563-1.601562-2.589844-3.296875-3.824219-5.007812-.472656-.640626-.976562-1.257813-1.429688-1.902344v-.050782c-.066406-.09375-.121093-.183593-.183593-.261718l-.265625-.394532c-.207032-.269531-.375-.550781-.574219-.796874-1.867187-2.707032-3.601563-5.488282-5.265625-8.3125-1.601562-2.6875-3.046875-5.386719-4.390625-8.128907-.539063-1.0625-1.089844-2.121093-1.601563-3.199219-.152343-.378906-.335937-.800781-.433593-1.03125l-.390625-.800781-.097656-.191406v-.042969c-1.949219-4.355468-3.667969-8.8125-5.140626-13.351562-.144531-.429688-.28125-.886719-.425781-1.328125-.726562-2.328125-1.40625-4.679688-2.015625-7.0625 0-.128907-.070312-.25-.097656-.375-.046875-.320313-.109375-.640625-.191406-.953125-.144532-.542969-.246094-1.113282-.375-1.65625-.382813-1.664063-.800782-3.320313-1.105469-5 0-.183594-.039063-.367188-.070313-.550782-.425781-2.183593-.800781-4.449218-1.070312-6.714843-.007812-.496094-.070312-.988281-.195312-1.46875 0-.167969-.054688-.441407-.101563-.722657-.296875-2.398437-.511719-4.734374-.671875-7.320312-.257812-2.902344-.328125-5.816406-.328125-8.71875.082031-75.074219 60.921875-135.917969 136-136zm57.503906 332c-.632812 1.359375-1.328125 2.695312-2.074219 4h-110.863281c-.742187-1.296875-1.4375-2.632812-2.070312-4l-4.839844-36h124.6875zm6.496094-52h-128.496094l-2.152343-16h133.296874l-2.167968 16.097656c-.167969-.007812-.3125-.097656-.480469-.097656zm-80-106.910156 11.269531 8.117187c2.792969 2.011719 6.5625 2.011719 9.351563 0l11.378906-8.191406v74.984375h-32zm-26.257813 178.910156h84.511719c-24.132812 21.332031-60.378906 21.332031-84.511719 0zm0 0" fill="#231f20"/></svg>